<svg width="61" height="61" viewBox="0 0 61 61" fill="none" xmlns="http://www.w3.org/2000/svg">
<mask id="mask0" mask-type="alpha" maskUnits="userSpaceOnUse" x="8" y="0" width="53" height="50">
<path d="M37.0823 32.7406L50.0799 13.8709L24.6079 13.8661L16.8706 8.70203C20.9046 6.1818 25.6144 4.78845 30.4991 4.78845C44.6767 4.78845 56.2104 16.3221 56.2104 30.4997C56.2104 35.1565 54.9663 39.5308 52.7912 43.3031L37.0823 32.7406ZM16.137 3.58612C13.4707 5.01318 11.0195 6.84316 8.88452 8.98777L23.2402 18.6546L40.9669 18.6578L30.3996 34.0007L48.2499 46.0208L50.0221 47.2103C50.0221 47.2119 50.0221 47.2119 50.0221 47.2135L54.0272 49.9103C55.9102 47.634 57.4432 45.109 58.6006 42.3721C60.1914 38.611 60.9988 34.6155 60.9988 30.4997C60.9988 26.3838 60.1914 22.39 58.6006 18.6273C57.0643 14.9946 54.8652 11.7327 52.0656 8.93158C49.2661 6.13204 46.0042 3.93285 42.3715 2.39824C38.6104 0.805833 34.615 0 30.4991 0C25.4908 0 20.5258 1.23925 16.137 3.58612Z" fill="white"/>
</mask>
<g mask="url(#mask0)">
<path d="M75.3283 4.52409L56.2724 64.8749L-5.44763 45.3824L13.6098 -14.9668L75.3283 4.52409Z" fill="url(#paint0_linear)"/>
</g>
<mask id="mask1" mask-type="alpha" maskUnits="userSpaceOnUse" x="0" y="11" width="52" height="50">
<path d="M4.78845 30.5003C4.78845 26.0233 5.92978 21.6939 8.1097 17.851L24.0161 28.574L11.2849 47.3153H36.248L44.0174 52.3638C40.0862 54.8037 35.455 56.2147 30.4997 56.2147C16.3221 56.2147 4.78845 44.6762 4.78845 30.5003ZM5.43536 13.1171C1.87974 18.2362 0 24.2463 0 30.5003C0 34.6162 0.807438 38.6116 2.39824 42.3727C3.93606 46.007 6.13364 49.2672 8.93319 52.0684C11.7343 54.8679 14.9946 57.0655 18.6273 58.6049C22.39 60.1941 26.3838 61 30.4997 61C34.6155 61 38.611 60.1941 42.372 58.6049C45.9646 57.0848 49.1927 54.9161 51.973 52.1599L37.7538 42.5814L37.6671 42.5268H20.3272L30.6778 27.2866L10.8499 13.9197C10.8499 13.9197 10.8499 13.9197 10.8499 13.9181L6.85921 11.231C6.35998 11.841 5.88643 12.4702 5.43536 13.1171Z" fill="white"/>
</mask>
<g mask="url(#mask1)">
<path d="M66.354 15.2612L47.3511 75.4418L-14.2004 56.0039L4.80405 -4.17676L66.354 15.2612Z" fill="url(#paint1_linear)"/>
</g>
<defs>
<linearGradient id="paint0_linear" x1="42.3449" y1="1.94952" x2="25.5789" y2="55.0418" gradientUnits="userSpaceOnUse">
<stop stop-color="#26BDCA"/>
<stop offset="1" stop-color="#1B9DAE"/>
</linearGradient>
<linearGradient id="paint1_linear" x1="37.6419" y1="0.245381" x2="20.8662" y2="53.3684" gradientUnits="userSpaceOnUse">
<stop stop-color="#26BDCA"/>
<stop offset="1" stop-color="#1B9DAE"/>
</linearGradient>
</defs>
</svg>

